<?xml version="1.0" encoding="utf-8"?>
<!-- Generator: Adobe Illustrator 25.0.1, SVG Export Plug-In . SVG Version: 6.00 Build 0)  -->
<svg version="1.1" id="katman_1" xmlns="http://www.w3.org/2000/svg" xmlns:xlink="http://www.w3.org/1999/xlink" x="0px" y="0px"
	 viewBox="52 137 508 518" style="enable-background:new 0 0 612 792;" xml:space="preserve">
<style type="text/css">
	.st0{fill:#FFFFFF;}
</style>
<g>
	<path class="st0" d="M306,137.1C166.1,137.1,52.7,253,52.7,396S166.1,654.9,306,654.9S559.3,539,559.3,396S445.9,137.1,306,137.1z
		 M306.1,627.6C180.9,627.6,79.5,523.9,79.5,396s101.5-231.6,226.6-231.6S532.7,268.1,532.7,396S431.2,627.6,306.1,627.6z"/>
	<path class="st0" d="M306.1,194.7c-108.8,0-197,90.1-197,201.3s88.2,201.3,197,201.3s197-90.1,197-201.3S414.9,194.7,306.1,194.7z
		 M317.1,578.2L317.1,578.2c-3.6,0.2-7.3,0.3-11,0.3c-3.9,0-7.8-0.1-11.7-0.4C201.2,572,127.5,492.8,127.5,396
		c0-32.6,8.4-63.2,23-89.7c2.5-4.5,5.2-8.9,8-13.2c31.2-46.7,83.1-77.8,142.1-79.6c1.8-0.1,3.6-0.1,5.4-0.1c1.7,0,3.4,0,5.1,0.1
		c59.1,1.7,110.9,32.7,142.2,79.3c2.7,4.1,5.3,8.3,7.7,12.6c15,26.7,23.5,57.6,23.5,90.6C484.7,493,410.6,572.4,317.1,578.2z"/>
	<path class="st0" d="M461.1,305.4L317.1,578.2h0c-3.6,0.2-7.3,0.3-11,0.3c-3.9,0-7.8-0.1-11.7-0.4L150.5,306.3
		c2.5-4.5,5.2-8.9,8-13.2l77.1,146c0,0,28.7-36.8,29.8-38.2c1.1-1.3,4.8-3.9,7.1-1s-0.7,6.5-0.7,6.5l-31.7,41.4l58.5,109.6
		l1.3-187.1l-24.6,11.6L297.7,255c0,0-19.2,2.5-40.9,11.7c-21.8,9.3-44.2,33.8-44.2,33.8l-10.2-9.6c0,0,6.5-11.4,34-29.4
		C263.9,243.7,301,240,301,240l-0.3-26.4c1.8-0.1,3.6-0.1,5.4-0.1c1.7,0,3.4,0,5.1,0.1l-0.5,26.3c0,0,22.1-0.8,51.1,8
		c29,8.8,55.1,34.9,55.1,34.9l-10.3,9.9c0,0-17-17.7-44.6-29.3c-27.6-11.6-50.9-9.3-50.9-9.3l0.6,99l24.4-11.7L313,558.1l58.6-110.6
		c0,0-27.5-35.7-29-37.8c-1.5-2.1-6.5-7.2-3.1-10c3.4-2.8,6.3,0.4,6.3,0.4l30.3,39.1l77.3-146.4
		C456.1,296.9,458.7,301.1,461.1,305.4z"/>
	<path class="st0" d="M133.8,444.3l58.4-1.8c0,0,3.6,0.1,3.5,3.8c-0.1,3.7-2.7,4.6-2.7,4.6l-56.7,1.8"/>
	<path class="st0" d="M478.3,444.3l-59-1.7c0,0-3.5,0.6-3.5,4.5s4,4.1,4,4.1l56.2,1.4c0,0,3.4-1.3,3.6-1.5c0.2-0.2,0-6.3,0-6.3
		L478.3,444.3z"/>
</g>
</svg>
