{
	"asset": {
		"generator": "SOLIDWORKSGLTF",
		"version" : "2.0"
	},
"extensionsUsed": [ "KHR_lights_punctual", "Solidworks_custom_properties"],
	"scene" : 0,
	"scenes": [
		{
			"name": "default - Görüntü Durumu-1",
			"nodes": [
				0, 11, 17, 18, 19]
		}
	],
	"nodes": [
		{
			"matrix": [
				0.820477,					0.0380084,					-0.570415,					0,
				-0.0646112,					0.99756,					-0.0264657,					0,
				0.568017,					0.0585697,					0.82093,					0,
				17.8592,					1.87985,					28.1703,					1
			]
			,"camera": 0
			,"name": "current"		}
,
		{
			"matrix": [
				1,					0,					0,					0,
				0,					1,					0,					0,
				0,					0,					1,					0,
				-0.777838,					0.000864118,					33.5717,					1
			]
			,"camera": 1
			,"name": "*Normal To"		}
,
		{
			"matrix": [
				1,					0,					0,					0,
				0,					1,					0,					0,
				0,					0,					1,					0,
				0,					0,					32.5717,					1
			]
			,"camera": 2
			,"name": "*Front"		}
,
		{
			"matrix": [
				-1,					0,					0,					0,
				0,					1,					0,					0,
				0,					0,					-1,					0,
				0,					0,					-32.5717,					1
			]
			,"camera": 3
			,"name": "*Back"		}
,
		{
			"matrix": [
				0,					0,					1,					0,
				0,					1,					0,					0,
				-1,					0,					0,					0,
				-32.5717,					0,					0,					1
			]
			,"camera": 4
			,"name": "*Left"		}
,
		{
			"matrix": [
				0,					0,					-1,					0,
				0,					1,					0,					0,
				1,					0,					0,					0,
				32.5717,					0,					0,					1
			]
			,"camera": 5
			,"name": "*Right"		}
,
		{
			"matrix": [
				1,					0,					0,					0,
				0,					0,					-1,					0,
				0,					1,					0,					0,
				0,					32.5717,					0,					1
			]
			,"camera": 6
			,"name": "*Top"		}
,
		{
			"matrix": [
				1,					0,					0,					0,
				0,					0,					1,					0,
				0,					-1,					0,					0,
				0,					-32.5717,					0,					1
			]
			,"camera": 7
			,"name": "*Bottom"		}
,
		{
			"matrix": [
				0.707107,					0,					-0.707107,					0,
				-0.408204,					0.816541,					-0.408204,					0,
				0.577382,					0.577288,					0.577382,					0,
				18.8063,					18.8033,					18.8063,					1
			]
			,"camera": 8
			,"name": "*Isometric"		}
,
		{
			"matrix": [
				0.884418,					0,					-0.466695,					0,
				-0.240366,					0.857167,					-0.455509,					0,
				0.400036,					0.515038,					0.758094,					0,
				13.0299,					16.7757,					24.6924,					1
			]
			,"camera": 9
			,"name": "*Trimetric"		}
,
		{
			"matrix": [
				0.935414,					0,					-0.353553,					0,
				-0.117851,					0.942809,					-0.311805,					0,
				0.333333,					0.333333,					0.881917,					0,
				10.8572,					10.8572,					28.7256,					1
			]
			,"camera": 10
			,"name": "*Dimetric"		}
,
		{
			"children": [
				12, 13, 14, 15, 16
			]
			,"name": "Assem1"		}
,
		{
			"matrix": [
				-3.49148e-15,					0,					-1,					0,
				0,					1,					0,					0,
				1,					0,					-3.49148e-15,					0,
				0.685,					-0.296184,					1.92142,					1
			]
			,"mesh": 0
			,"name": "Design_17inch-1"		}
,
		{
			"matrix": [
				1.04744e-14,					0,					1,					0,
				0,					1,					0,					0,
				-1,					0,					1.04744e-14,					0,
				-0.74,					-0.296184,					1.92142,					1
			]
			,"mesh": 1
			,"name": "Design_17inch-3"		}
,
		{
			"matrix": [
				1.04744e-14,					0,					1,					0,
				0,					1,					0,					0,
				-1,					0,					1.04744e-14,					0,
				-0.74,					-0.296184,					-0.07858,					1
			]
			,"mesh": 2
			,"name": "Design_17inch-4"		}
,
		{
			"matrix": [
				-3.49148e-15,					0,					-1,					0,
				0,					1,					0,					0,
				1,					0,					-3.49148e-15,					0,
				0.685,					-0.296184,					-0.07858,					1
			]
			,"mesh": 3
			,"name": "Design_17inch-2"		}
,
		{
			"matrix": [
				1,					0,					0,					0,
				0,					1,					0,					0,
				0,					0,					1,					0,
				-0.0218658,					-0.461184,					2.52142,					1
			]
			,"mesh": 4
			,"name": "Part2_v4_ass-1"		}
,
		{
			"matrix": [
				0.707107,					0.707107,					-0,					0,
				0,					-0,					-1,					0,
				-0.707107,					0.707107,					-0,					0,
				7.1,					7.1,					0,					1
			]
			,"extensions" : {
				"KHR_lights_punctual" : {
					"light" : 0
				}
			}
			,"name": "LightNode_Doğrusal1"		}
,
		{
			"matrix": [
				0.612516,					-0.341403,					0,					0,
				0.243396,					0.436681,					-0.491732,					0,
				0.341403,					0.612516,					0.712929,					0,
				-3.4,					6.1,					-7.1,					1
			]
			,"extensions" : {
				"KHR_lights_punctual" : {
					"light" : 1
				}
			}
			,"name": "LightNode_Doğrusal2"		}
,
		{
			"matrix": [
				0.340956,					-0.922587,					0,					0,
				0.166533,					0.0615447,					-0.967418,					0,
				0.922587,					0.340956,					0.180506,					0,
				-9.2,					3.4,					-1.8,					1
			]
			,"extensions" : {
				"KHR_lights_punctual" : {
					"light" : 2
				}
			}
			,"name": "LightNode_Doğrusal3"		}
	],
	"cameras": [
		{
			"type": "orthographic",
			"orthographic" : {
				"xmag": 1,
				"ymag" : 1,
				"zfar" : 100,
				"znear" : 0.01
			}
		}
,
		{
			"type": "orthographic",
			"orthographic" : {
				"xmag": 1,
				"ymag" : 1,
				"zfar" : 100,
				"znear" : 0.01
			}
		}
,
		{
			"type": "orthographic",
			"orthographic" : {
				"xmag": 1,
				"ymag" : 1,
				"zfar" : 100,
				"znear" : 0.01
			}
		}
,
		{
			"type": "orthographic",
			"orthographic" : {
				"xmag": 1,
				"ymag" : 1,
				"zfar" : 100,
				"znear" : 0.01
			}
		}
,
		{
			"type": "orthographic",
			"orthographic" : {
				"xmag": 1,
				"ymag" : 1,
				"zfar" : 100,
				"znear" : 0.01
			}
		}
,
		{
			"type": "orthographic",
			"orthographic" : {
				"xmag": 1,
				"ymag" : 1,
				"zfar" : 100,
				"znear" : 0.01
			}
		}
,
		{
			"type": "orthographic",
			"orthographic" : {
				"xmag": 1,
				"ymag" : 1,
				"zfar" : 100,
				"znear" : 0.01
			}
		}
,
		{
			"type": "orthographic",
			"orthographic" : {
				"xmag": 1,
				"ymag" : 1,
				"zfar" : 100,
				"znear" : 0.01
			}
		}
,
		{
			"type": "orthographic",
			"orthographic" : {
				"xmag": 1,
				"ymag" : 1,
				"zfar" : 100,
				"znear" : 0.01
			}
		}
,
		{
			"type": "orthographic",
			"orthographic" : {
				"xmag": 1,
				"ymag" : 1,
				"zfar" : 100,
				"znear" : 0.01
			}
		}
,
		{
			"type": "orthographic",
			"orthographic" : {
				"xmag": 1,
				"ymag" : 1,
				"zfar" : 100,
				"znear" : 0.01
			}
		}
	],
	"extensions": {
		"KHR_lights_punctual" : {
			"lights": [
				{
					"color" : [
						0.4,
						0.4,
						0.4
					],
					"type" : "directional"
				},
				{
					"color" : [
						0.1,
						0.1,
						0.1
					],
					"type" : "directional"
				},
				{
					"color" : [
						0.2,
						0.2,
						0.2
					],
					"type" : "directional"
				}
			]
		}
	},
	"meshes" : [
		{
			"primitives" : [
				{
					"attributes" : {
					"POSITION" : 1,
					"NORMAL" : 2,
					"TEXCOORD_0" : 3
					},
					"indices" : 0,
					"mode": 4,
					"material" : 0
				},
				{
					"attributes" : {
					"POSITION" : 5,
					"NORMAL" : 6,
					"TEXCOORD_0" : 7
					},
					"indices" : 4,
					"mode": 4,
					"material" : 1
				},
				{
					"attributes" : {
					"POSITION" : 9,
					"NORMAL" : 10,
					"TEXCOORD_0" : 11
					},
					"indices" : 8,
					"mode": 4,
					"material" : 1
				}
			]
		},
		{
			"primitives" : [
				{
					"attributes" : {
					"POSITION" : 13,
					"NORMAL" : 14,
					"TEXCOORD_0" : 15
					},
					"indices" : 12,
					"mode": 4,
					"material" : 0
				},
				{
					"attributes" : {
					"POSITION" : 17,
					"NORMAL" : 18,
					"TEXCOORD_0" : 19
					},
					"indices" : 16,
					"mode": 4,
					"material" : 1
				},
				{
					"attributes" : {
					"POSITION" : 21,
					"NORMAL" : 22,
					"TEXCOORD_0" : 23
					},
					"indices" : 20,
					"mode": 4,
					"material" : 1
				}
			]
		},
		{
			"primitives" : [
				{
					"attributes" : {
					"POSITION" : 25,
					"NORMAL" : 26,
					"TEXCOORD_0" : 27
					},
					"indices" : 24,
					"mode": 4,
					"material" : 0
				},
				{
					"attributes" : {
					"POSITION" : 29,
					"NORMAL" : 30,
					"TEXCOORD_0" : 31
					},
					"indices" : 28,
					"mode": 4,
					"material" : 1
				},
				{
					"attributes" : {
					"POSITION" : 33,
					"NORMAL" : 34,
					"TEXCOORD_0" : 35
					},
					"indices" : 32,
					"mode": 4,
					"material" : 1
				}
			]
		},
		{
			"primitives" : [
				{
					"attributes" : {
					"POSITION" : 37,
					"NORMAL" : 38,
					"TEXCOORD_0" : 39
					},
					"indices" : 36,
					"mode": 4,
					"material" : 0
				},
				{
					"attributes" : {
					"POSITION" : 41,
					"NORMAL" : 42,
					"TEXCOORD_0" : 43
					},
					"indices" : 40,
					"mode": 4,
					"material" : 1
				},
				{
					"attributes" : {
					"POSITION" : 45,
					"NORMAL" : 46,
					"TEXCOORD_0" : 47
					},
					"indices" : 44,
					"mode": 4,
					"material" : 1
				}
			]
		},
		{
			"primitives" : [
				{
					"attributes" : {
					"POSITION" : 49,
					"NORMAL" : 50,
					"TEXCOORD_0" : 51
					},
					"indices" : 48,
					"mode": 4,
					"material" : 0
				}
			]
		}
	],
	"accessors" : [
			{
				"bufferView": 3
				,"byteOffset" : 0
				,"componentType" : 5123
				,"count" : 56883
				,"type" : "SCALAR"
			},
			{
				"bufferView": 0
				,"byteOffset" : 0
				,"componentType" : 5126
				,"count" : 56883
				,"type" : "VEC3"
				,"min" : [-2.30900005e-01, -2.30836540e-01, -3.88212316e-02]
				,"max" : [2.30900005e-01, 2.30836540e-01, 5.20338863e-02]
			},
			{
				"bufferView": 1
				,"byteOffset" : 0
				,"componentType" : 5126
				,"count" : 56883
				,"type" : "VEC3"
			},
			{
				"bufferView": 2
				,"byteOffset" : 0
				,"componentType" : 5126
				,"count" : 56883
				,"type" : "VEC2"
			},
			{
				"bufferView": 3
				,"byteOffset" : 113766
				,"componentType" : 5123
				,"count" : 64998
				,"type" : "SCALAR"
			},
			{
				"bufferView": 0
				,"byteOffset" : 682596
				,"componentType" : 5126
				,"count" : 64998
				,"type" : "VEC3"
				,"min" : [-2.96961725e-01, -2.96896577e-01, -4.13948558e-02]
				,"max" : [2.96948791e-01, 2.96896577e-01, 4.16933894e-02]
			},
			{
				"bufferView": 1
				,"byteOffset" : 682596
				,"componentType" : 5126
				,"count" : 64998
				,"type" : "VEC3"
			},
			{
				"bufferView": 2
				,"byteOffset" : 455064
				,"componentType" : 5126
				,"count" : 64998
				,"type" : "VEC2"
			},
			{
				"bufferView": 3
				,"byteOffset" : 243762
				,"componentType" : 5123
				,"count" : 63297
				,"type" : "SCALAR"
			},
			{
				"bufferView": 0
				,"byteOffset" : 1462572
				,"componentType" : 5126
				,"count" : 63297
				,"type" : "VEC3"
				,"min" : [-2.96961725e-01, -2.96896577e-01, -4.48312685e-02]
				,"max" : [2.96948791e-01, 2.96896577e-01, 4.48312685e-02]
			},
			{
				"bufferView": 1
				,"byteOffset" : 1462572
				,"componentType" : 5126
				,"count" : 63297
				,"type" : "VEC3"
			},
			{
				"bufferView": 2
				,"byteOffset" : 975048
				,"componentType" : 5126
				,"count" : 63297
				,"type" : "VEC2"
			},
			{
				"bufferView": 7
				,"byteOffset" : 0
				,"componentType" : 5123
				,"count" : 56883
				,"type" : "SCALAR"
			},
			{
				"bufferView": 4
				,"byteOffset" : 0
				,"componentType" : 5126
				,"count" : 56883
				,"type" : "VEC3"
				,"min" : [-2.30900005e-01, -2.30836540e-01, -3.88212316e-02]
				,"max" : [2.30900005e-01, 2.30836540e-01, 5.20338863e-02]
			},
			{
				"bufferView": 5
				,"byteOffset" : 0
				,"componentType" : 5126
				,"count" : 56883
				,"type" : "VEC3"
			},
			{
				"bufferView": 6
				,"byteOffset" : 0
				,"componentType" : 5126
				,"count" : 56883
				,"type" : "VEC2"
			},
			{
				"bufferView": 7
				,"byteOffset" : 113766
				,"componentType" : 5123
				,"count" : 64998
				,"type" : "SCALAR"
			},
			{
				"bufferView": 4
				,"byteOffset" : 682596
				,"componentType" : 5126
				,"count" : 64998
				,"type" : "VEC3"
				,"min" : [-2.96961725e-01, -2.96896577e-01, -4.13948558e-02]
				,"max" : [2.96948791e-01, 2.96896577e-01, 4.16933894e-02]
			},
			{
				"bufferView": 5
				,"byteOffset" : 682596
				,"componentType" : 5126
				,"count" : 64998
				,"type" : "VEC3"
			},
			{
				"bufferView": 6
				,"byteOffset" : 455064
				,"componentType" : 5126
				,"count" : 64998
				,"type" : "VEC2"
			},
			{
				"bufferView": 7
				,"byteOffset" : 243762
				,"componentType" : 5123
				,"count" : 63297
				,"type" : "SCALAR"
			},
			{
				"bufferView": 4
				,"byteOffset" : 1462572
				,"componentType" : 5126
				,"count" : 63297
				,"type" : "VEC3"
				,"min" : [-2.96961725e-01, -2.96896577e-01, -4.48312685e-02]
				,"max" : [2.96948791e-01, 2.96896577e-01, 4.48312685e-02]
			},
			{
				"bufferView": 5
				,"byteOffset" : 1462572
				,"componentType" : 5126
				,"count" : 63297
				,"type" : "VEC3"
			},
			{
				"bufferView": 6
				,"byteOffset" : 975048
				,"componentType" : 5126
				,"count" : 63297
				,"type" : "VEC2"
			},
			{
				"bufferView": 11
				,"byteOffset" : 0
				,"componentType" : 5123
				,"count" : 56883
				,"type" : "SCALAR"
			},
			{
				"bufferView": 8
				,"byteOffset" : 0
				,"componentType" : 5126
				,"count" : 56883
				,"type" : "VEC3"
				,"min" : [-2.30900005e-01, -2.30836540e-01, -3.88212316e-02]
				,"max" : [2.30900005e-01, 2.30836540e-01, 5.20338863e-02]
			},
			{
				"bufferView": 9
				,"byteOffset" : 0
				,"componentType" : 5126
				,"count" : 56883
				,"type" : "VEC3"
			},
			{
				"bufferView": 10
				,"byteOffset" : 0
				,"componentType" : 5126
				,"count" : 56883
				,"type" : "VEC2"
			},
			{
				"bufferView": 11
				,"byteOffset" : 113766
				,"componentType" : 5123
				,"count" : 64998
				,"type" : "SCALAR"
			},
			{
				"bufferView": 8
				,"byteOffset" : 682596
				,"componentType" : 5126
				,"count" : 64998
				,"type" : "VEC3"
				,"min" : [-2.96961725e-01, -2.96896577e-01, -4.13948558e-02]
				,"max" : [2.96948791e-01, 2.96896577e-01, 4.16933894e-02]
			},
			{
				"bufferView": 9
				,"byteOffset" : 682596
				,"componentType" : 5126
				,"count" : 64998
				,"type" : "VEC3"
			},
			{
				"bufferView": 10
				,"byteOffset" : 455064
				,"componentType" : 5126
				,"count" : 64998
				,"type" : "VEC2"
			},
			{
				"bufferView": 11
				,"byteOffset" : 243762
				,"componentType" : 5123
				,"count" : 63297
				,"type" : "SCALAR"
			},
			{
				"bufferView": 8
				,"byteOffset" : 1462572
				,"componentType" : 5126
				,"count" : 63297
				,"type" : "VEC3"
				,"min" : [-2.96961725e-01, -2.96896577e-01, -4.48312685e-02]
				,"max" : [2.96948791e-01, 2.96896577e-01, 4.48312685e-02]
			},
			{
				"bufferView": 9
				,"byteOffset" : 1462572
				,"componentType" : 5126
				,"count" : 63297
				,"type" : "VEC3"
			},
			{
				"bufferView": 10
				,"byteOffset" : 975048
				,"componentType" : 5126
				,"count" : 63297
				,"type" : "VEC2"
			},
			{
				"bufferView": 15
				,"byteOffset" : 0
				,"componentType" : 5123
				,"count" : 56883
				,"type" : "SCALAR"
			},
			{
				"bufferView": 12
				,"byteOffset" : 0
				,"componentType" : 5126
				,"count" : 56883
				,"type" : "VEC3"
				,"min" : [-2.30900005e-01, -2.30836540e-01, -3.88212316e-02]
				,"max" : [2.30900005e-01, 2.30836540e-01, 5.20338863e-02]
			},
			{
				"bufferView": 13
				,"byteOffset" : 0
				,"componentType" : 5126
				,"count" : 56883
				,"type" : "VEC3"
			},
			{
				"bufferView": 14
				,"byteOffset" : 0
				,"componentType" : 5126
				,"count" : 56883
				,"type" : "VEC2"
			},
			{
				"bufferView": 15
				,"byteOffset" : 113766
				,"componentType" : 5123
				,"count" : 64998
				,"type" : "SCALAR"
			},
			{
				"bufferView": 12
				,"byteOffset" : 682596
				,"componentType" : 5126
				,"count" : 64998
				,"type" : "VEC3"
				,"min" : [-2.96961725e-01, -2.96896577e-01, -4.13948558e-02]
				,"max" : [2.96948791e-01, 2.96896577e-01, 4.16933894e-02]
			},
			{
				"bufferView": 13
				,"byteOffset" : 682596
				,"componentType" : 5126
				,"count" : 64998
				,"type" : "VEC3"
			},
			{
				"bufferView": 14
				,"byteOffset" : 455064
				,"componentType" : 5126
				,"count" : 64998
				,"type" : "VEC2"
			},
			{
				"bufferView": 15
				,"byteOffset" : 243762
				,"componentType" : 5123
				,"count" : 63297
				,"type" : "SCALAR"
			},
			{
				"bufferView": 12
				,"byteOffset" : 1462572
				,"componentType" : 5126
				,"count" : 63297
				,"type" : "VEC3"
				,"min" : [-2.96961725e-01, -2.96896577e-01, -4.48312685e-02]
				,"max" : [2.96948791e-01, 2.96896577e-01, 4.48312685e-02]
			},
			{
				"bufferView": 13
				,"byteOffset" : 1462572
				,"componentType" : 5126
				,"count" : 63297
				,"type" : "VEC3"
			},
			{
				"bufferView": 14
				,"byteOffset" : 975048
				,"componentType" : 5126
				,"count" : 63297
				,"type" : "VEC2"
			},
			{
				"bufferView": 19
				,"byteOffset" : 0
				,"componentType" : 5123
				,"count" : 32985
				,"type" : "SCALAR"
			},
			{
				"bufferView": 16
				,"byteOffset" : 0
				,"componentType" : 5126
				,"count" : 32985
				,"type" : "VEC3"
				,"min" : [-7.57995427e-01, -6.04380435e-11, -3.14970708e+00]
				,"max" : [7.57995427e-01, 1.04961181e+00, 1.50381102e-05]
			},
			{
				"bufferView": 17
				,"byteOffset" : 0
				,"componentType" : 5126
				,"count" : 32985
				,"type" : "VEC3"
			},
			{
				"bufferView": 18
				,"byteOffset" : 0
				,"componentType" : 5126
				,"count" : 32985
				,"type" : "VEC2"
			}
	],
	"materials": [
			{
				"pbrMetallicRoughness": {
					"baseColorFactor": [
						0.498039, 0.498039, 0.498039, 1
					]
					,"metallicFactor": 0
					,"roughnessFactor": 1
				}
			},
			{
				"name": "glossy rubber"
				,"pbrMetallicRoughness": {
					"baseColorFactor": [
						0.298039, 0.298039, 0.298039, 1
					]
					,"metallicFactor": 0
					,"roughnessFactor": 0.196
				}
			}
	],
	"bufferViews" : [
			{
				"buffer": 0
				,"byteOffset" : 0
				,"byteLength" : 2222136
				,"byteStride" : 12
				,"target" : 34962
			},
			{
				"buffer": 0
				,"byteOffset" : 2222136
				,"byteLength" : 2222136
				,"byteStride" : 12
				,"target" : 34962
			},
			{
				"buffer": 0
				,"byteOffset" : 4444272
				,"byteLength" : 1481424
				,"byteStride" : 8
				,"target" : 34962
			},
			{
				"buffer": 0
				,"byteOffset" : 5925696
				,"byteLength" : 370356
				,"target" : 34963
			},
			{
				"buffer": 1
				,"byteOffset" : 0
				,"byteLength" : 2222136
				,"byteStride" : 12
				,"target" : 34962
			},
			{
				"buffer": 1
				,"byteOffset" : 2222136
				,"byteLength" : 2222136
				,"byteStride" : 12
				,"target" : 34962
			},
			{
				"buffer": 1
				,"byteOffset" : 4444272
				,"byteLength" : 1481424
				,"byteStride" : 8
				,"target" : 34962
			},
			{
				"buffer": 1
				,"byteOffset" : 5925696
				,"byteLength" : 370356
				,"target" : 34963
			},
			{
				"buffer": 2
				,"byteOffset" : 0
				,"byteLength" : 2222136
				,"byteStride" : 12
				,"target" : 34962
			},
			{
				"buffer": 2
				,"byteOffset" : 2222136
				,"byteLength" : 2222136
				,"byteStride" : 12
				,"target" : 34962
			},
			{
				"buffer": 2
				,"byteOffset" : 4444272
				,"byteLength" : 1481424
				,"byteStride" : 8
				,"target" : 34962
			},
			{
				"buffer": 2
				,"byteOffset" : 5925696
				,"byteLength" : 370356
				,"target" : 34963
			},
			{
				"buffer": 3
				,"byteOffset" : 0
				,"byteLength" : 2222136
				,"byteStride" : 12
				,"target" : 34962
			},
			{
				"buffer": 3
				,"byteOffset" : 2222136
				,"byteLength" : 2222136
				,"byteStride" : 12
				,"target" : 34962
			},
			{
				"buffer": 3
				,"byteOffset" : 4444272
				,"byteLength" : 1481424
				,"byteStride" : 8
				,"target" : 34962
			},
			{
				"buffer": 3
				,"byteOffset" : 5925696
				,"byteLength" : 370356
				,"target" : 34963
			},
			{
				"buffer": 4
				,"byteOffset" : 0
				,"byteLength" : 395820
				,"byteStride" : 12
				,"target" : 34962
			},
			{
				"buffer": 4
				,"byteOffset" : 395820
				,"byteLength" : 395820
				,"byteStride" : 12
				,"target" : 34962
			},
			{
				"buffer": 4
				,"byteOffset" : 791640
				,"byteLength" : 263880
				,"byteStride" : 8
				,"target" : 34962
			},
			{
				"buffer": 4
				,"byteOffset" : 1055520
				,"byteLength" : 65970
				,"target" : 34963
			}
	],
	"buffers" : [
			{
				"byteLength": 6296052
				,"uri" : "Design_17inch-1.bin"
			},
			{
				"byteLength": 6296052
				,"uri" : "Design_17inch-3.bin"
			},
			{
				"byteLength": 6296052
				,"uri" : "Design_17inch-4.bin"
			},
			{
				"byteLength": 6296052
				,"uri" : "Design_17inch-2.bin"
			},
			{
				"byteLength": 1121492
				,"uri" : "Part2_v4_ass-1.bin"
			}
	]
}
