<?xml version="1.0" encoding="utf-8"?>
<svg version="1.1" xmlns="http://www.w3.org/2000/svg" xmlns:xlink="http://www.w3.org/1999/xlink" x="0px" y="0px"
	 viewBox="0 0 512 512" width="512" height="512" xml:space="preserve">
<style type="text/css">
	.st1{fill:#FF4254;}
</style>
<g transform="translate(0, 0) scale(1.0)">
	<path class="st1" d="M256,36C130.2,36,28.7,137.5,28.7,264.1s101.5,228.1,227.3,228.1S483.3,390.7,483.3,264.1S381.8,36,256,36z
		 M256.1,468.2c-112.4,0-203.2-91.3-203.2-204.1S143.7,60,256.1,60s203.2,91.3,203.2,204.1S368.5,468.2,256.1,468.2z"/>
	<path class="st1" d="M256.1,91.3c-97.7,0-176.8,77.6-176.8,172.8s79.1,172.8,176.8,172.8s176.8-77.6,176.8-172.8S353.8,91.3,256.1,91.3z
		 M266,425.8L266,425.8c-3.2,0.2-6.6,0.3-9.9,0.3c-3.5,0-7-0.1-10.5-0.3c-83.4-5.3-149.9-73.7-149.9-158.2
		c0-28,7.5-54.3,20.6-77c2.2-3.9,4.7-7.6,7.2-11.3c28-40.1,74.6-66.8,127.6-68.4c1.6-0.1,3.2-0.1,4.9-0.1c1.5,0,3.1,0,4.6,0.1
		c53.1,1.5,99.5,28.1,127.7,68.1c2.4,3.5,4.8,7.1,6.9,10.8c13.5,22.9,21.1,49.5,21.1,77.8C416,354.1,350.2,420.8,266,425.8z"/>
	<path class="st1" d="M394.6,186.5L266,425.8c-3.2,0.2-6.6,0.3-9.9,0.3c-3.5,0-7-0.1-10.5-0.3L117.4,187.2
		c2.2-3.9,4.7-7.6,7.2-11.3l69.2,125.4c0,0,25.8-31.6,26.8-32.8c1-1.1,4.3-3.4,6.4-0.9s-0.6,5.6-0.6,5.6l-28.5,35.6l52.5,94.1
		l1.2-160.6l-22.1,10L249.6,145c0,0-17.2,2.1-36.7,10c-19.6,8-39.7,29-39.7,29l-9.2-8.2c0,0,5.8-9.8,30.5-25.2
		c24.7-15.4,58-18.6,58-18.6l-0.3-22.7c1.6-0.1,3.2-0.1,4.9-0.1c1.5,0,3.1,0,4.6,0.1l-0.5,22.6c0,0,19.8-0.7,45.9,6.9
		c26,7.6,49.5,30,49.5,30l-9.2,8.5c0,0-15.3-15.2-40-25.2c-24.8-10-45.7-8-45.7-8l0.5,85l21.9-10l20.8,170.2l52.6-95
		c0,0-24.7-30.7-26-32.5c-1.3-1.8-5.8-6.2-2.8-8.6c3.1-2.4,5.7,0.3,5.7,0.3l27.2,33.6l69.4-125.8
		C390.1,179.1,392.4,182.7,394.6,186.5z"/>
	<path class="st1" d="M102.4,308.3l52.4-1.5c0,0,3.2,0.1,3.1,3.3c-0.1,3.2-2.4,4-2.4,4l-50.9,1.5"/>
	<path class="st1" d="M410.6,308.3l-53-1.5c0,0-3.1,0.5-3.1,3.9s3.6,3.5,3.6,3.5l50.5,1.2c0,0,3.1-1.1,3.2-1.3c0.2-0.2,0-5.4,0-5.4
		L410.6,308.3z"/>
</g>
</svg>