<?xml version="1.0" encoding="UTF-8"?>
<svg id="Layer_2" data-name="Layer 2" xmlns="http://www.w3.org/2000/svg" viewBox="0 0 2980.93 818.09">
  <defs>
    <style>
      .cls-1 {
        fill: #2b2b2b;
      }

      .cls-2 {
        fill: #fa4616;
      }
    </style>
  </defs>
  <g id="Layer_1-2" data-name="Layer 1">
    <g>
      <g>
        <path class="cls-1" d="M2478.48,594.65h74.37l106.67-371.2h-173.83c-62.08,0-127.09,50.49-144.93,112.57l-74.31,258.63h74.37l36.56-127.21h137.65l-36.55,127.21ZM2398.74,393.07l12.34-42.92c8.29-28.86,38.51-52.34,67.37-52.34h85.32l-27.37,95.26h-137.66Z"/>
        <path class="cls-1" d="M1414.69,594.65h152.62l21.36-74.37h-138.49c-28.86,0-45.6-23.48-37.3-52.34l6.23-21.71h190.83l21.36-74.37h-190.83l21.29-74.05h190.83l21.36-74.37h-265.19l-74.32,258.63c-17.84,62.08,18.16,112.57,80.24,112.57Z"/>
        <path class="cls-1" d="M1739.41,223.45h74.38l-106.67,371.2h-74.37l106.66-371.2ZM1821.58,594.65h82.82l-39.47-185.61,146.13-185.59h-82.8l-146.13,185.59,39.46,185.61Z"/>
        <polygon class="cls-1" points="1065.11 594.65 1139.48 594.65 1224.77 297.82 1330.78 297.82 1352.16 223.44 1065.75 223.44 1044.38 297.82 1150.4 297.82 1065.11 594.65"/>
        <polygon class="cls-1" points="2121.54 223.44 2038.72 223.44 2089.4 461.74 2051.2 594.65 2125.57 594.65 2163.76 461.74 2351.39 223.44 2268.58 223.44 2152.8 370.48 2121.54 223.44"/>
        <path class="cls-1" d="M2831.15,414.26h-.47l150.25-190.83-159.07.12q-74.38-.12-98.34-.12h-12.77l-21.27,74.01,150.17.25-83.56,106.13-5.48,7.56-144.3,183.26,160.14-.12q73.42.12,97.38.12h12.66l21.27-74.02-150.19-.22,83.57-106.14Z"/>
      </g>
      <g>
        <path class="cls-2" d="M463.61,360.55l-137.2-.02-46.4,161.74h-44.88l57.89-201.78h182.14l40.1-139.76h-182.21c17.31-60.24,34.62-120.48,51.92-180.73h-150.25L51.85,637.37h332.39s79.37-276.82,79.37-276.82Z"/>
        <polygon class="cls-2" points="40.28 677.61 372.68 677.61 332.4 818.09 0 818.09 40.28 677.61"/>
        <path class="cls-2" d="M888.73,180.72c-60.96,212.48-121.92,424.93-182.85,637.37h-331.8l40.28-140.48h181.88c3.86-13.41,7.71-26.83,11.53-40.24h-181.84l1.93-6.75,129.07-449.91h139.23l-97.99,341.56h42.65l97.99-341.56h149.91Z"/>
        <polygon class="cls-2" points="429.84 0 389.54 140.47 900.27 140.47 940.57 0 429.84 0"/>
      </g>
    </g>
  </g>
</svg>