<?xml version="1.0" encoding="utf-8"?>
<!-- Generator: Adobe Illustrator 25.0.1, SVG Export Plug-In . SVG Version: 6.00 Build 0)  -->
<svg version="1.1" id="katman_1" xmlns="http://www.w3.org/2000/svg" xmlns:xlink="http://www.w3.org/1999/xlink" x="0px" y="0px"
	 viewBox="0 0 612 792" style="enable-background:new 0 0 612 792;" xml:space="preserve">
<style type="text/css">
	.st0{fill:#FFFFFF;}
</style>
<g>
	<path class="st0" d="M305.8,85.3c-139.9,0-253.3,115.9-253.3,258.9s113.4,258.9,253.3,258.9s253.3-115.9,253.3-258.9
		S445.7,85.3,305.8,85.3z M305.9,575.8c-125.2,0-226.6-103.7-226.6-231.6s101.5-231.6,226.6-231.6s226.6,103.7,226.6,231.6
		S431,575.8,305.9,575.8z"/>
	<path class="st0" d="M305.9,142.9c-108.8,0-197,90.1-197,201.3s88.2,201.3,197,201.3s197-90.1,197-201.3S414.7,142.9,305.9,142.9z
		 M316.9,526.4L316.9,526.4c-3.6,0.2-7.3,0.3-11,0.3c-3.9,0-7.8-0.1-11.7-0.4C201,520.2,127.3,441,127.3,344.2
		c0-32.6,8.4-63.2,23-89.7c2.5-4.5,5.2-8.9,8-13.2c31.2-46.7,83.1-77.8,142.1-79.6c1.8-0.1,3.6-0.1,5.4-0.1c1.7,0,3.4,0,5.1,0.1
		c59.1,1.7,110.9,32.7,142.2,79.3c2.7,4.1,5.3,8.3,7.7,12.6c15,26.7,23.5,57.6,23.5,90.6C484.4,441.2,410.4,520.6,316.9,526.4z"/>
	<path class="st0" d="M460.9,253.6L316.9,526.4h0c-3.6,0.2-7.3,0.3-11,0.3c-3.9,0-7.8-0.1-11.7-0.4L150.3,254.5
		c2.5-4.5,5.2-8.9,8-13.2l77.1,146c0,0,28.7-36.8,29.8-38.2c1.1-1.3,4.8-3.9,7.1-1s-0.7,6.5-0.7,6.5L239.9,396l58.5,109.6l1.3-187.1
		L275.1,330l22.4-126.8c0,0-19.2,2.5-40.9,11.7c-21.8,9.3-44.2,33.8-44.2,33.8l-10.2-9.6c0,0,6.5-11.4,34-29.4
		c27.5-17.9,64.6-21.6,64.6-21.6l-0.3-26.4c1.8-0.1,3.6-0.1,5.4-0.1c1.7,0,3.4,0,5.1,0.1l-0.5,26.3c0,0,22.1-0.8,51.1,8
		c29,8.8,55.1,34.9,55.1,34.9l-10.3,9.9c0,0-17-17.7-44.6-29.3c-27.6-11.6-50.9-9.3-50.9-9.3l0.6,99l24.4-11.7l-23.2,216.8
		l58.6-110.6c0,0-27.5-35.7-29-37.8c-1.5-2.1-6.5-7.2-3.1-10c3.4-2.8,6.3,0.4,6.3,0.4l30.3,39.1L453.2,241
		C455.9,245.1,458.5,249.3,460.9,253.6z"/>
	<path class="st0" d="M133.6,392.5l58.4-1.8c0,0,3.6,0.1,3.5,3.8c-0.1,3.7-2.7,4.6-2.7,4.6l-56.7,1.8"/>
	<path class="st0" d="M478.1,392.5l-59-1.7c0,0-3.5,0.6-3.5,4.5s4,4.1,4,4.1l56.2,1.4c0,0,3.4-1.3,3.6-1.5c0.2-0.2,0-6.3,0-6.3
		L478.1,392.5z"/>
</g>
<path class="st0" d="M60.2,638.7h42.6l25.2,53.6l-4.8,11.1l-19.4,0.6c0,0-0.1-0.8,1.5-0.9c1.6-0.1,7.1-0.3,7.1-0.3l-25-56.1
	c0,0-31.4,0.6-32.8,0.7c-1.4,0.1-2.7-0.8-0.8-2.7C55.7,642.8,60.2,638.7,60.2,638.7z"/>
<path class="st0" d="M69.7,649.6c4.6,0,12,0.1,12.8,0s4.7,5.6,2.7,5.7c-2,0.1-26.7,0.7-27.1,0.3c-0.4-0.3,3.4-5.6,3.9-5.8
	C62.5,649.6,69.7,649.6,69.7,649.6z"/>
<path class="st0" d="M134.4,640l-11.8-2.9c0,0,27.2,0.8,28.5,1.4c1.3,0.6-16.8,42.5-17.7,41.7s-9.5-18.4-9.5-19.1
	C123.9,660.4,134.4,640,134.4,640z"/>
<path class="st0" d="M175.2,640.6l-12.4-1.4h19.7L182,658c0,0-7.3,3.6-7.6,11.5c-0.4,7.9,5.3,11.9,5.3,11.9l-0.1,21.4H163
	c0,0,4.5-1.4,7.4-1.6c2.8-0.2,4.6-0.3,4.6-0.3s-7.5-3.4-12.8-11c-5.3-7.6-5.7-18.5-5.7-18.5s-12.5-0.7-11.7-0.9s11.7-0.4,11.7-0.4
	s-0.3-9.5,4.8-17.2C166.4,645.1,175.2,640.6,175.2,640.6z"/>
<path class="st0" d="M195.8,639.3V658c0,0,7.3,4.6,7,12.7c-0.3,8.1-7.5,12.1-7.5,12.1l0.3,20c0,0,23.8-5.4,24-29.7
	C219.8,648.7,200.1,640.3,195.8,639.3z"/>
<path class="st0" d="M229.7,639.3c0,0-18-1.8-16.2-1.9s32.6,0.5,32.6,0.5v16.5c0,0-16.3,21-16.3,20.6
	C229.7,674.5,229.7,639.3,229.7,639.3z"/>
<path class="st0" d="M229.7,697.1c0,0,0-9.4,0-10c0-0.5,16.3-22.3,16.3-21.9s0,22.1,0,22.6c0,0.5,27.2,0.3,27.3,0.6
	c0.2,0.3,0.2,15.2,0,15.2c-0.2,0-36.4-0.3-42.7-0.4c-0.5,0-1-0.4-1-1L229.7,697.1z"/>
<path class="st0" d="M290.4,637.1c0,0-36.5,0.1-36.2,0.4c0.3,0.3,11.7,0.6,11.7,0.6l0.3,16.9c0,0-6.8,0.7-6,0.7s24.5-0.5,24.6-0.3
	c0.2,0.1,1,50.5,1,50.5h5.1v-68.8H290.4z"/>
<polygon class="st0" points="296.6,637.1 296.5,705.9 301.8,705.9 301.8,654.6 319.8,654.4 319.8,637.1 "/>
<path class="st0" d="M333.9,666c0,0,4.1-9.6,4.6-9.7c0.5-0.1,9.6,15.6,9.8,16.2c0.2,0.6-14.8,30.7-15.5,31.1s-26.2,0.5-26.2,0.5
	s3.9-1,7-1.4c3.1-0.3,3.4-0.4,3.4-0.4L333.9,666z"/>
<path class="st0" d="M328,637.4l28.7-0.3c0,0,32.7,65.4,32.1,65.8c-0.6,0.4-26.2,1.2-25.3,0.6c0.8-0.6,8.3-1,8.3-1l-3.4-7.8
	c0,0-21.4,0.7-21.2,0.3c0.2-0.4,8.1-16.7,8.1-16.7l6-0.2c0,0-16.5-34.4-16.6-34.8c-0.1-0.4,2.1-4.6,2.1-4.6S326.5,638.1,328,637.4z"
	/>
<path class="st0" d="M401.8,639.3c0,0-16.6-1.6-12-1.6s40.2,0.9,44.5,0.8c4.3-0.1,12.9,0.5,18.4,8.1c5.6,7.6,4.2,21.6-0.8,27.8
	c-5,6.3-8.4,5.5-8.3,5.9c0.1,0.4,14.5,19.2,15.2,20.6s1.2,3.6-1.1,3.9c-2.3,0.3-25.6,0.9-23.7,0.2c1.9-0.6,5.8-0.7,5.5-1.1
	c-0.3-0.4-14.5-19.1-14.5-19.1L419,685v19c0,0-27.5,0-24.9-0.3s7.8-0.7,7.8-0.7v-34c0,0,25.7,0,28.2-0.2c2.4-0.2,9.1-2.3,9.1-7
	c0-4.7-6-7.1-11.1-7.2c-5-0.1-26.2-0.6-26.2-0.6L401.8,639.3z"/>
<path class="st0" d="M472.6,640.7c0,0-19.1-1.5-12.4-1.5c6.6,0.1,23.9,0,23.9,0l-11.7,53.5L472.6,640.7z"/>
<polygon class="st0" points="487.2,647.7 474.9,702.7 487.2,702.7 "/>
<path class="st0" d="M513.8,640.2c0,0-17.4,0.3-14.9,0c2.5-0.3,16-1.7,18.7-1.9c2.7-0.3,13.5-2.7,22.4,0.3c8.9,3.1,12.8,6,12.5,7.5
	c-0.3,1.5-5.4,5.9-7.3,8.3c-1.9,2.3-3.4,4.6-4.6,4.2c-1.2-0.3-1.7-4.9-7.5-6.1c-5.8-1.2-9.3,1.3-9.8,1.7c-0.5,0.4-16.3-8-16.1-8.6
	C507.2,645.1,511,641.7,513.8,640.2z"/>
<path class="st0" d="M502.8,656.7c0,0,9.9,2.1,14.8,2.7c4.9,0.6,6.3,1,7.3,1.5c1,0.5,2,1.5,5.4,1.9c3.4,0.5,14.1,2.5,18.8,8.5
	s4.3,9.3,4.3,9.3l-18.5,1.9c0,0-1.2-2.2-4.6-3.6c-3.4-1.4-8-0.5-14.5-4.3c-6.5-3.9-7.9-6.2-7.9-6.2s-10.7,0.3-9.7-0.1
	c1-0.4,8.3-1.4,8.3-1.4s-1.7-2.2-2.9-4.7C502.6,659.7,502.8,656.7,502.8,656.7z"/>
<path class="st0" d="M512.5,684.2c0,0-16.1,0.9-13.8,1.1s12.5,0.6,12.5,0.6s-6.4,6.6-7.7,7.9c-1.3,1.3-2.1,3.4-0.2,4.6
	s9.9,6.3,21.3,5.4c11.4-0.9,18-4.9,19.6-6.1c1.7-1.2,2.3-1.7,1.9-2.3c-0.4-0.5-11.8-8-12.5-8.2c-0.6-0.2-6.9,2.5-11.7,0.4
	s-7-3.8-7.7-4.2C513.5,683.2,512.5,684.2,512.5,684.2z"/>
</svg>
